<?xml version="1.0" standalone="no"?>
<!DOCTYPE svg PUBLIC "-//W3C//DTD SVG 20010904//EN"
 "http://www.w3.org/TR/2001/REC-SVG-20010904/DTD/svg10.dtd">
<svg version="1.0" xmlns="http://www.w3.org/2000/svg"
 width="197.000000pt" height="197.000000pt" viewBox="0 0 197.000000 197.000000"
 preserveAspectRatio="xMidYMid meet">
<metadata>
Created by potrace 1.11, written by Peter Selinger 2001-2013
</metadata>
<g transform="translate(0.000000,197.000000) scale(0.100000,-0.100000)"
fill="#000000" stroke="none">
<path d="M809 1955 c-163 -31 -338 -115 -469 -226 -128 -109 -251 -306 -302
-484 -20 -70 -23 -103 -23 -255 0 -153 3 -185 23 -254 48 -166 121 -293 242
-420 93 -97 170 -153 292 -211 139 -66 244 -89 408 -89 180 -1 290 25 445 102
104 51 182 110 271 205 133 141 225 325 254 509 18 109 8 311 -20 413 -92 339
-363 605 -709 696 -101 27 -307 34 -412 14z m175 -91 c3 -9 6 -67 6 -130 l0
-115 46 -20 c41 -19 64 -42 52 -55 -3 -2 -37 -1 -77 2 -56 6 -74 11 -82 26 -8
14 -7 24 3 35 9 11 14 57 17 145 2 96 6 128 16 128 7 0 16 -7 19 -16z m-146
-326 c2 -9 -13 -40 -32 -68 -27 -40 -36 -62 -36 -95 0 -30 -8 -54 -30 -86 -16
-24 -30 -54 -30 -66 l0 -23 353 -2 352 -3 -2 -29 c-1 -16 -5 -31 -8 -34 -3 -4
-143 -8 -310 -10 -286 -4 -305 -6 -310 -23 -10 -31 3 -39 60 -39 l54 0 7 -37
c4 -20 4 -127 1 -237 -3 -111 -3 -223 1 -251 7 -48 8 -50 42 -53 19 -1 41 2
48 6 19 13 32 118 32 262 0 160 -9 195 -56 212 -33 12 -35 15 -32 53 l3 40 74
3 c53 2 77 -1 82 -10 5 -7 9 -135 9 -285 0 -172 4 -274 10 -278 6 -3 19 -3 30
0 28 9 33 51 34 268 l1 189 -29 23 c-27 21 -28 27 -20 57 9 31 12 33 62 36 29
2 53 2 54 0 1 -2 5 -131 8 -288 l5 -285 73 -3 72 -3 0 -29 0 -30 -445 0 -445
0 0 25 c0 14 9 34 19 44 16 16 20 41 26 152 4 74 5 208 3 298 -3 157 -4 164
-25 179 -36 23 -28 76 12 83 15 3 28 26 50 89 47 130 68 161 153 231 49 41 74
46 80 17z m532 -498 c6 -12 8 -31 4 -43 -4 -12 -8 -98 -8 -192 -1 -123 -5
-177 -14 -194 -27 -47 -37 -8 -41 169 -2 130 -6 172 -17 181 -16 14 -18 52 -4
80 15 26 66 26 80 -1z m90 -675 c15 -18 10 -45 -12 -59 -35 -22 -74 27 -48 59
16 19 44 19 60 0z"/>
<path d="M744 966 c-10 -43 0 -444 12 -456 17 -17 52 4 61 38 5 15 8 111 8
213 0 170 -2 189 -19 208 -26 28 -54 27 -62 -3z"/>
<path d="M627 953 c-10 -10 -8 -441 2 -447 5 -3 15 2 22 11 16 18 26 320 14
399 -6 40 -21 55 -38 37z"/>
<path d="M1404 356 c-10 -26 4 -48 28 -44 17 2 23 10 23 28 0 18 -6 26 -23 28
-13 2 -25 -3 -28 -12z m43 -15 c-1 -12 -8 -19 -19 -18 -25 2 -24 37 1 37 13 0
19 -6 18 -19z"/>
</g>
</svg>
