<svg version="1" xmlns="http://www.w3.org/2000/svg" width="262.667" height="262.667" viewBox="0 0 197.000000 197.000000"><path d="M80.9 1.5C64.6 4.6 47.1 13 34 24.1 21.2 35 8.9 54.7 3.8 72.5c-2 7-2.3 10.3-2.3 25.5 0 15.3.3 18.5 2.3 25.4 4.8 16.6 12.1 29.3 24.2 42 9.3 9.7 17 15.3 29.2 21.1 13.9 6.6 24.4 8.9 40.8 8.9 18 .1 29-2.5 44.5-10.2 10.4-5.1 18.2-11 27.1-20.5 13.3-14.1 22.5-32.5 25.4-50.9 1.8-10.9.8-31.1-2-41.3-9.2-33.9-36.3-60.5-70.9-69.6C112 .2 91.4-.5 80.9 1.5zm17.5 9.1c.3.9.6 6.7.6 13v11.5l4.6 2c4.1 1.9 6.4 4.2 5.2 5.5-.3.2-3.7.1-7.7-.2-5.6-.6-7.4-1.1-8.2-2.6-.8-1.4-.7-2.4.3-3.5.9-1.1 1.4-5.7 1.7-14.5.2-9.6.6-12.8 1.6-12.8.7 0 1.6.7 1.9 1.6zM83.8 43.2c.2.9-1.3 4-3.2 6.8-2.7 4-3.6 6.2-3.6 9.5 0 3-.8 5.4-3 8.6-1.6 2.4-3 5.4-3 6.6V77l35.3.2 35.2.3-.2 2.9c-.1 1.6-.5 3.1-.8 3.4-.3.4-14.3.8-31 1-28.6.4-30.5.6-31 2.3-1 3.1.3 3.9 6 3.9h5.4l.7 3.7c.4 2 .4 12.7.1 23.7-.3 11.1-.3 22.3.1 25.1.7 4.8.8 5 4.2 5.3 1.9.1 4.1-.2 4.8-.6 1.9-1.3 3.2-11.8 3.2-26.2 0-16-.9-19.5-5.6-21.2-3.3-1.2-3.5-1.5-3.2-5.3l.3-4 7.4-.3c5.3-.2 7.7.1 8.2 1 .5.7.9 13.5.9 28.5 0 17.2.4 27.4 1 27.8.6.3 1.9.3 3 0 2.8-.9 3.3-5.1 3.4-26.8l.1-18.9-2.9-2.3c-2.7-2.1-2.8-2.7-2-5.7.9-3.1 1.2-3.3 6.2-3.6 2.9-.2 5.3-.2 5.4 0 .1.2.5 13.1.8 28.8l.5 28.5 7.3.3 7.2.3v5.9H52v-2.5c0-1.4.9-3.4 1.9-4.4 1.6-1.6 2-4.1 2.6-15.2.4-7.4.5-20.8.3-29.8-.3-15.7-.4-16.4-2.5-17.9-3.6-2.3-2.8-7.6 1.2-8.3 1.5-.3 2.8-2.6 5-8.9 4.7-13 6.8-16.1 15.3-23.1 4.9-4.1 7.4-4.6 8-1.7zM137 93c.6 1.2.8 3.1.4 4.3-.4 1.2-.8 9.8-.8 19.2-.1 12.3-.5 17.7-1.4 19.4-2.7 4.7-3.7.8-4.1-16.9-.2-13-.6-17.2-1.7-18.1-1.6-1.4-1.8-5.2-.4-8 1.5-2.6 6.6-2.6 8 .1zm9 67.5c1.5 1.8 1 4.5-1.2 5.9-3.5 2.2-7.4-2.7-4.8-5.9 1.6-1.9 4.4-1.9 6 0z"/><path d="M74.4 100.4c-1 4.3 0 44.4 1.2 45.6 1.7 1.7 5.2-.4 6.1-3.8.5-1.5.8-11.1.8-21.3 0-17-.2-18.9-1.9-20.8-2.6-2.8-5.4-2.7-6.2.3zM62.7 101.7c-1 1-.8 44.1.2 44.7.5.3 1.5-.2 2.2-1.1 1.6-1.8 2.6-32 1.4-39.9-.6-4-2.1-5.5-3.8-3.7zM140.4 161.4c-1 2.6.4 4.8 2.8 4.4 1.7-.2 2.3-1 2.3-2.8 0-1.8-.6-2.6-2.3-2.8-1.3-.2-2.5.3-2.8 1.2zm4.3 1.5c-.1 1.2-.8 1.9-1.9 1.8-2.5-.2-2.4-3.7.1-3.7 1.3 0 1.9.6 1.8 1.9z"/></svg>