<svg xmlns="http://www.w3.org/2000/svg" class="footer-logo-icon" aria-labelledby="logo-footer" viewBox="0 0 330 75"><path class="st10" d="M258.7 16.3l-1.9-3.2 12.2-9h3.2v32.3c0 .4 0 .8-.1 1.2s-.1.6-.1.9l4-.2v4.1h-15.4V39c.6 0 1.1-.1 1.6-.2s.9-.3 1.2-.6c.3-.3.6-.8.7-1.4.2-.6.3-1.5.3-2.5V12.9l-5.7 3.4zm25.5-6h-.3c-.6 0-1.1.1-1.6.2s-.9.3-1.2.6c-.3.3-.6.7-.8 1.2-.2.5-.3 1.1-.3 1.8h-3.4L277 5h22.8v4.9c-1.2 2.5-2.2 4.9-3.1 7.2-.9 2.3-1.7 4.6-2.4 7-.7 2.4-1.4 4.8-2 7.3-.6 2.5-1.3 5.2-2 8-.1.5-.3 1-.5 1.5s-.5.9-.8 1.3c-.3.4-.7.7-1.1.9-.4.2-.9.4-1.4.4-.6 0-1.1-.1-1.4-.3-.4-.2-.7-.4-.9-.7-.2-.3-.4-.6-.5-1-.1-.4-.2-.8-.2-1.2 0-.4 0-.8.1-1.3s.3-1.2.6-2c.3-.9.7-1.9 1.2-3.3.5-1.3 1.2-3 2.1-5.1.9-2.1 1.9-4.6 3.2-7.5 1.3-2.9 2.8-6.4 4.5-10.5l-11-.3zm25 27.3c.1.3.3.6.6.8.3.2.7.5 1.1.6.4.2.8.3 1.3.4.4.1.8.2 1.2.2 1.1 0 2-.2 2.7-.7.8-.4 1.4-1 1.8-1.7.5-.7.8-1.5 1.1-2.4.2-.9.3-1.8.3-2.7v-1.8c0-.7-.1-1.3-.2-2s-.3-1.4-.6-2-.6-1.2-1.1-1.8c-.5-.5-1.1-.9-1.8-1.2-.7-.3-1.6-.5-2.6-.5-.8 0-1.7.1-2.9.4-1.1.3-2.3.8-3.6 1.5l-2.3-1.8V5l13.8.1c.6 0 1.2 0 1.7-.1s.9-.2 1.3-.5c.4-.2.6-.6.8-1.1.2-.5.3-1.1.3-1.8h3.4l-.5 8.7-16.8.2-.1 9.5c.4-.2.9-.3 1.4-.5.5-.2 1.1-.3 1.7-.4l1.8-.3c.6-.1 1.2-.1 1.7-.1 2.2 0 4.1.4 5.8 1 1.6.7 3 1.6 4 2.7 1.1 1.1 1.9 2.4 2.4 3.9s.8 3 .7 4.6c0 2.1-.4 3.9-1.2 5.5-.8 1.6-1.8 2.9-3.1 3.9s-2.8 1.8-4.4 2.3c-1.7.5-3.3.8-5.1.8-1.8 0-3.3-.2-4.7-.7-1.4-.5-2.5-1-3.5-1.7-.9-.7-1.6-1.5-2.1-2.4-.5-.9-.7-1.7-.7-2.6 0-.5.1-1.1.3-1.5.2-.5.4-.9.8-1.3.3-.4.7-.7 1.2-.9.5-.2 1-.3 1.5-.3.6 0 1.2.1 1.6.4.4.2.8.5 1 .9.3.3.4.7.6 1.1.1.4.2.8.2 1.2 0 .3-.1.7-.2 1.1-.3.1-.4.5-.6.9m-40 11.2h2.8L268.1 63v10.2h-2.9V63L261 48.8h2.7l2.9 10h.1zm6.3 0h7.3v2.4h-4.4v8.3h4.2v2.4h-4.2v8.9h4.5v2.4h-7.4zm14.6 17.4h3.7l-1.9-12.9-1.8 12.9zm0-17.4h3.5l4 24.4h-2.7l-.7-4.7h-4.4l-.6 4.7h-2.7l3.6-24.4zm17.8 6c0-1.9-.2-3-.5-3.3-.3-.3-.8-.4-1.5-.4h-1.8v8.2h1.8c.6 0 1-.1 1.2-.3.3-.2.4-.6.6-1.2.1-.6.2-1.5.2-2.8v-.2zm-6.7-6h5.1c1.5 0 2.5.3 3.1.9.6.6 1 1.6 1.2 3.1.1.6.1 1.5.1 2.8s-.2 2.3-.5 3.2c-.3.8-.9 1.4-1.7 1.6.6.1 1.1.4 1.4 1 .3.5.5 1.4.7 2.6.1 1.2.2 2.9.2 5.3 0 2.3.1 3.7.2 4.1h-2.9c-.1-.3-.2-3-.2-8.2 0-1.7-.2-2.8-.5-3-.3-.3-.9-.4-1.6-.4l-1.7-.1v11.8h-2.9V48.8zm13.8 7.5c-.2-.6-.2-1.3-.2-2.1 0-1.8.3-3.2 1-4.2s1.9-1.6 3.7-1.6c2.4 0 3.8 1.1 4.2 3.4.2 1 .3 2.2.3 3.7V57h-2.7v-1.6c0-1.6-.1-2.6-.2-3.1-.2-.5-.4-.9-.6-1.1-.2-.2-.5-.3-.9-.3-.7 0-1.2.3-1.5.8-.3.5-.5 1.3-.5 2.3 0 1 .1 1.7.4 2.2.3.5.6.9 1 1.3s.6.7.7.7l1.7 1.8c2 2.1 3 4.4 3 7 0 2.1-.3 3.7-1 4.8-.7 1.1-1.9 1.7-3.7 1.7-2.2 0-3.6-1-4.2-2.9-.3-1.1-.5-2.5-.5-4.3v-2.5h2.8v2.5c0 1.8.1 3 .4 3.7.3.7.7 1 1.4 1s1.2-.2 1.5-.5.4-.8.5-1.5c0-.7.1-1.4.1-2.3 0-1.7-.7-3.3-2.2-4.8l-1.6-1.6c-1.6-1.4-2.5-2.8-2.9-4"/><path class="st1" d="M33.1 18.5h-5.6v40.1h5.6v14.5H2.4V58.6H8V18.5H2.4V4.1h30.7v14.4zm41.2 54.7H52.1c-8.1 0-13.3-5.3-13.3-13.9V18c0-8.6 5.4-13.9 13.3-13.9h22.2c8.1 0 13.3 5.4 13.3 13.9v41.2c.1 8.6-5.3 14-13.3 14zM68 58.6V18.5h-9.7v40.1H68zm28.4-40.1h-4.9V4.1h29.1v14.4h-5.5l5 33.3 10.4-47.7h14.7l11.1 47.7 4-33.3h-5.1V4.1h28.7v14.4h-4.8l-8.7 54.7H147l-9.1-40.7-9.3 40.7h-22.5l-9.7-54.7zm82.3 40.1h5.3L194.5 4h31.4l10.4 54.6h4.9v14.5h-23.4l-2.2-16.8h-11.7l-2.1 16.8h-23V58.6zm35.6-14.9l-4.5-27.9-4.6 27.9h9.1z"/><image/></svg>